<?xml version="1.0" encoding="UTF-8" standalone="no"?>
<svg
   xmlns:dc="http://purl.org/dc/elements/1.1/"
   xmlns:cc="http://creativecommons.org/ns#"
   xmlns:rdf="http://www.w3.org/1999/02/22-rdf-syntax-ns#"
   xmlns:svg="http://www.w3.org/2000/svg"
   xmlns="http://www.w3.org/2000/svg"
   version="1.1"
   id="svg3713"
   xml:space="preserve"
   width="504.49866"
   height="504.5"
   viewBox="0 0 504.49866 504.5"><metadata
     id="metadata3719"><rdf:RDF><cc:Work
         rdf:about=""><dc:format>image/svg+xml</dc:format><dc:type
           rdf:resource="http://purl.org/dc/dcmitype/StillImage" /><dc:title></dc:title></cc:Work></rdf:RDF></metadata><defs
     id="defs3717"><clipPath
       clipPathUnits="userSpaceOnUse"
       id="clipPath3731"><path
         d="M 0,500 H 500 V 0 H 0 Z"
         id="path3729" /></clipPath><clipPath
       clipPathUnits="userSpaceOnUse"
       id="clipPath3743"><path
         d="M 68.0273,343.354 H 319.116 V 78.9531 H 68.0273 Z"
         id="path3741" /></clipPath><clipPath
       clipPathUnits="userSpaceOnUse"
       id="clipPath3747"><path
         d="m 304.692,255.089 c 0.039,-0.051 0.083,-0.091 0.117,-0.155 -0.034,0.065 -0.073,0.117 -0.117,0.155"
         id="path3745"
         style="clip-rule:evenodd" /></clipPath><linearGradient
       x1="0"
       y1="0"
       x2="1"
       y2="0"
       gradientUnits="userSpaceOnUse"
       gradientTransform="matrix(-0.0203141,-0.0203141,-0.0203141,0.0203141,304.76074,255.02246)"
       spreadMethod="pad"
       id="linearGradient3757"><stop
         style="stop-opacity:1;stop-color:#ffffff"
         offset="0"
         id="stop3753" /><stop
         style="stop-opacity:0;stop-color:#ffffff"
         offset="1"
         id="stop3755" /></linearGradient><mask
       maskUnits="userSpaceOnUse"
       x="0"
       y="0"
       width="1"
       height="1"
       id="mask3759"><g
         id="g3769"><g
           id="g3767"><g
             id="g3765"><g
               id="g3763"><path
                 d="M -32768,32767 H 32767 V -32768 H -32768 Z"
                 style="fill:url(#linearGradient3757);stroke:none"
                 id="path3761" /></g></g></g></g></mask><linearGradient
       x1="0"
       y1="0"
       x2="1"
       y2="0"
       gradientUnits="userSpaceOnUse"
       gradientTransform="matrix(-0.0203141,-0.0203141,-0.0203141,0.0203141,304.76074,255.02246)"
       spreadMethod="pad"
       id="linearGradient3775"><stop
         style="stop-opacity:1;stop-color:#000000"
         offset="0"
         id="stop3771" /><stop
         style="stop-opacity:1;stop-color:#000000"
         offset="1"
         id="stop3773" /></linearGradient><clipPath
       clipPathUnits="userSpaceOnUse"
       id="clipPath3779"><path
         d="m 304.678,255.108 c 0.005,-0.004 0.009,-0.014 0.014,-0.019 -0.005,0.007 -0.008,0.014 -0.014,0.019"
         id="path3777"
         style="clip-rule:evenodd" /></clipPath><linearGradient
       x1="0"
       y1="0"
       x2="1"
       y2="0"
       gradientUnits="userSpaceOnUse"
       gradientTransform="matrix(-0.0024169,-0.0024169,-0.0024169,0.0024169,304.68652,255.1001)"
       spreadMethod="pad"
       id="linearGradient3789"><stop
         style="stop-opacity:1;stop-color:#ffffff"
         offset="0"
         id="stop3785" /><stop
         style="stop-opacity:0;stop-color:#ffffff"
         offset="1"
         id="stop3787" /></linearGradient><mask
       maskUnits="userSpaceOnUse"
       x="0"
       y="0"
       width="1"
       height="1"
       id="mask3791"><g
         id="g3801"><g
           id="g3799"><g
             id="g3797"><g
               id="g3795"><path
                 d="M -32768,32767 H 32767 V -32768 H -32768 Z"
                 style="fill:url(#linearGradient3789);stroke:none"
                 id="path3793" /></g></g></g></g></mask><linearGradient
       x1="0"
       y1="0"
       x2="1"
       y2="0"
       gradientUnits="userSpaceOnUse"
       gradientTransform="matrix(-0.0024169,-0.0024169,-0.0024169,0.0024169,304.68652,255.1001)"
       spreadMethod="pad"
       id="linearGradient3807"><stop
         style="stop-opacity:1;stop-color:#000000"
         offset="0"
         id="stop3803" /><stop
         style="stop-opacity:1;stop-color:#000000"
         offset="1"
         id="stop3805" /></linearGradient><clipPath
       clipPathUnits="userSpaceOnUse"
       id="clipPath3811"><path
         d="m 304.742,255.02 c 0,0 -0.001,10e-4 -0.002,10e-4 0.005,-0.007 0.011,-0.014 0.016,-0.021 h 0.001 c -0.005,0.006 -0.01,0.013 -0.015,0.02"
         id="path3809"
         style="clip-rule:evenodd" /></clipPath><linearGradient
       x1="0"
       y1="0"
       x2="1"
       y2="0"
       gradientUnits="userSpaceOnUse"
       gradientTransform="matrix(-0.0030696,-0.0030696,-0.0030696,0.0030696,304.75,255.01172)"
       spreadMethod="pad"
       id="linearGradient3821"><stop
         style="stop-opacity:1;stop-color:#ffffff"
         offset="0"
         id="stop3817" /><stop
         style="stop-opacity:0;stop-color:#ffffff"
         offset="1"
         id="stop3819" /></linearGradient><mask
       maskUnits="userSpaceOnUse"
       x="0"
       y="0"
       width="1"
       height="1"
       id="mask3823"><g
         id="g3833"><g
           id="g3831"><g
             id="g3829"><g
               id="g3827"><path
                 d="M -32768,32767 H 32767 V -32768 H -32768 Z"
                 style="fill:url(#linearGradient3821);stroke:none"
                 id="path3825" /></g></g></g></g></mask><linearGradient
       x1="0"
       y1="0"
       x2="1"
       y2="0"
       gradientUnits="userSpaceOnUse"
       gradientTransform="matrix(-0.0030696,-0.0030696,-0.0030696,0.0030696,304.75,255.01172)"
       spreadMethod="pad"
       id="linearGradient3839"><stop
         style="stop-opacity:1;stop-color:#000000"
         offset="0"
         id="stop3835" /><stop
         style="stop-opacity:1;stop-color:#000000"
         offset="1"
         id="stop3837" /></linearGradient><clipPath
       clipPathUnits="userSpaceOnUse"
       id="clipPath3843"><path
         d="m 304.787,254.961 0.002,-0.002 c 0.006,-0.01 0.014,-0.016 0.02,-0.026 -0.006,0.011 -0.015,0.016 -0.022,0.028 m 0.022,-0.027 c -0.014,0.027 -0.034,0.045 -0.05,0.066 h -0.002 c 0.018,-0.021 0.037,-0.041 0.052,-0.07 -0.015,0.029 -0.035,0.048 -0.053,0.07 h -0.141 c -0.052,0 -0.103,0.174 -0.156,0.198 -0.209,0.127 -0.453,0.215 -0.715,0.192 -0.49,0.062 -1.006,0.034 -1.256,-0.187 -0.052,-0.004 -0.109,0 -0.159,0 0,-2.386 -2.478,-3.493 -4.188,-4.595 -3.022,-1.947 -5.448,-4.627 -8.102,-7.014 -5.813,-5.234 -11.982,-10.049 -18.001,-15.04 -5.815,-4.824 -11.591,-9.72 -16.868,-15.137 -2.407,-2.472 -5.547,-4.008 -8.238,-6.123 -0.989,-0.777 -1.864,-1.827 -3.149,-2.11 -1.808,-0.398 -3.51,0.529 -5.231,0.898 6.962,5.789 13.71,11.828 20.626,17.672 5.784,4.887 12.278,9.353 16.142,16.047 4.06,7.035 4.166,15.416 4.182,23.308 0.018,9.186 -0.016,18.373 0.061,27.559 0.116,13.988 3.058,30.014 -6.419,41.848 -8.21,10.252 -23.468,13.574 -35.434,8.487 -7.173,-3.05 -12.766,-8.653 -18.456,-13.8 -6.608,-5.974 -13.457,-11.672 -20.229,-17.457 -14.048,-12 -28.097,-24 -42.084,-36.072 -27.037,-23.341 -53.206,-47.716 -81.271,-69.843 -2.479,-1.954 -5.057,-3.845 -7.643,-5.747 15.01,-52.713 52.31,-96.029 101.057,-119.131 6.478,5.432 12.936,10.892 19.277,16.488 13.771,12.151 27.619,24.213 41.537,36.194 6.696,5.762 13.453,11.506 20.563,16.756 2.921,2.157 6.187,4.263 8.137,7.42 2.188,3.543 1.72,7.613 1.828,11.575 0.187,6.894 4.183,12.502 9.178,16.926 6.331,5.612 13.566,10.008 20.004,15.496 16.198,13.803 29.508,33.192 29.508,55.192 h -14.357 c 0.016,-0.023 0.035,-0.038 0.05,-0.066"
         id="path3841"
         style="clip-rule:evenodd" /></clipPath><linearGradient
       x1="0"
       y1="0"
       x2="1"
       y2="0"
       gradientUnits="userSpaceOnUse"
       gradientTransform="matrix(-186.71352,-186.71352,-186.71352,186.71352,296.25684,309.62988)"
       spreadMethod="pad"
       id="linearGradient3853"><stop
         style="stop-opacity:1;stop-color:#ffffff"
         offset="0"
         id="stop3849" /><stop
         style="stop-opacity:0;stop-color:#ffffff"
         offset="1"
         id="stop3851" /></linearGradient><mask
       maskUnits="userSpaceOnUse"
       x="0"
       y="0"
       width="1"
       height="1"
       id="mask3855"><g
         id="g3865"><g
           id="g3863"><g
             id="g3861"><g
               id="g3859"><path
                 d="M -32768,32767 H 32767 V -32768 H -32768 Z"
                 style="fill:url(#linearGradient3853);stroke:none"
                 id="path3857" /></g></g></g></g></mask><linearGradient
       x1="0"
       y1="0"
       x2="1"
       y2="0"
       gradientUnits="userSpaceOnUse"
       gradientTransform="matrix(-186.71352,-186.71352,-186.71352,186.71352,296.25684,309.62988)"
       spreadMethod="pad"
       id="linearGradient3871"><stop
         style="stop-opacity:1;stop-color:#000000"
         offset="0"
         id="stop3867" /><stop
         style="stop-opacity:1;stop-color:#000000"
         offset="1"
         id="stop3869" /></linearGradient><clipPath
       clipPathUnits="userSpaceOnUse"
       id="clipPath3875"><path
         d="m 304.692,255.089 c 0,0.001 -0.001,0.001 -0.001,0.001 0.023,-0.029 0.044,-0.061 0.068,-0.09 -0.022,0.031 -0.043,0.065 -0.067,0.089"
         id="path3873"
         style="clip-rule:evenodd" /></clipPath><linearGradient
       x1="0"
       y1="0"
       x2="1"
       y2="0"
       gradientUnits="userSpaceOnUse"
       gradientTransform="matrix(-0.0114909,-0.0114909,-0.0114909,0.0114909,304.73145,255.05029)"
       spreadMethod="pad"
       id="linearGradient3885"><stop
         style="stop-opacity:1;stop-color:#ffffff"
         offset="0"
         id="stop3881" /><stop
         style="stop-opacity:0;stop-color:#ffffff"
         offset="1"
         id="stop3883" /></linearGradient><mask
       maskUnits="userSpaceOnUse"
       x="0"
       y="0"
       width="1"
       height="1"
       id="mask3887"><g
         id="g3897"><g
           id="g3895"><g
             id="g3893"><g
               id="g3891"><path
                 d="M -32768,32767 H 32767 V -32768 H -32768 Z"
                 style="fill:url(#linearGradient3885);stroke:none"
                 id="path3889" /></g></g></g></g></mask><linearGradient
       x1="0"
       y1="0"
       x2="1"
       y2="0"
       gradientUnits="userSpaceOnUse"
       gradientTransform="matrix(-0.0114909,-0.0114909,-0.0114909,0.0114909,304.73145,255.05029)"
       spreadMethod="pad"
       id="linearGradient3903"><stop
         style="stop-opacity:1;stop-color:#000000"
         offset="0"
         id="stop3899" /><stop
         style="stop-opacity:1;stop-color:#000000"
         offset="1"
         id="stop3901" /></linearGradient></defs><g
     id="g3721"
     transform="matrix(1.3333333,0,0,-1.3333333,-81.083998,585.58332)"><g
       id="g3725"><g
         id="g3727"
         clip-path="url(#clipPath3731)"><g
           id="g3733"
           transform="translate(250,439.1875)"><path
             d="m 0,0 c -104.486,0 -189.187,-84.701 -189.187,-189.187 0,-104.485 84.701,-189.188 189.187,-189.188 104.482,0 189.187,84.703 189.187,189.188 C 189.187,-84.701 104.482,0 0,0"
             style="fill:#ef8321;fill-opacity:1;fill-rule:evenodd;stroke:none"
             id="path3735" /></g><g
           id="g3737"><g
             id="g3739" /><g
             id="g3977"><g
               clip-path="url(#clipPath3743)"
               id="g3975"
               style="opacity:0.41999799"><g
                 id="g3917"><g
                   clip-path="url(#clipPath3747)"
                   id="g3915"><g
                     id="g3913"><g
                       id="g3905" /><g
                       mask="url(#mask3759)"
                       id="g3911"><g
                         id="g3909"><path
                           d="m 304.692,255.089 c 0.039,-0.051 0.083,-0.091 0.117,-0.155 -0.034,0.065 -0.073,0.117 -0.117,0.155"
                           style="fill:url(#linearGradient3775);fill-rule:evenodd;stroke:none"
                           id="path3907" /></g></g></g></g></g><g
                 id="g3931"><g
                   clip-path="url(#clipPath3779)"
                   id="g3929"><g
                     id="g3927"><g
                       id="g3919" /><g
                       mask="url(#mask3791)"
                       id="g3925"><g
                         id="g3923"><path
                           d="m 304.678,255.108 c 0.005,-0.004 0.009,-0.014 0.014,-0.019 -0.005,0.007 -0.008,0.014 -0.014,0.019"
                           style="fill:url(#linearGradient3807);fill-rule:evenodd;stroke:none"
                           id="path3921" /></g></g></g></g></g><g
                 id="g3945"><g
                   clip-path="url(#clipPath3811)"
                   id="g3943"><g
                     id="g3941"><g
                       id="g3933" /><g
                       mask="url(#mask3823)"
                       id="g3939"><g
                         id="g3937"><path
                           d="m 304.742,255.02 c 0,0 -0.001,10e-4 -0.002,10e-4 0.005,-0.007 0.011,-0.014 0.016,-0.021 h 0.001 c -0.005,0.006 -0.01,0.013 -0.015,0.02"
                           style="fill:url(#linearGradient3839);fill-rule:evenodd;stroke:none"
                           id="path3935" /></g></g></g></g></g><g
                 id="g3959"><g
                   clip-path="url(#clipPath3843)"
                   id="g3957"><g
                     id="g3955"><g
                       id="g3947" /><g
                       mask="url(#mask3855)"
                       id="g3953"><g
                         id="g3951"><path
                           d="m 304.787,254.961 0.002,-0.002 c 0.006,-0.01 0.014,-0.016 0.02,-0.026 -0.006,0.011 -0.015,0.016 -0.022,0.028 m 0.022,-0.027 c -0.014,0.027 -0.034,0.045 -0.05,0.066 h -0.002 c 0.018,-0.021 0.037,-0.041 0.052,-0.07 -0.015,0.029 -0.035,0.048 -0.053,0.07 h -0.141 c -0.052,0 -0.103,0.174 -0.156,0.198 -0.209,0.127 -0.453,0.215 -0.715,0.192 -0.49,0.062 -1.006,0.034 -1.256,-0.187 -0.052,-0.004 -0.109,0 -0.159,0 0,-2.386 -2.478,-3.493 -4.188,-4.595 -3.022,-1.947 -5.448,-4.627 -8.102,-7.014 -5.813,-5.234 -11.982,-10.049 -18.001,-15.04 -5.815,-4.824 -11.591,-9.72 -16.868,-15.137 -2.407,-2.472 -5.547,-4.008 -8.238,-6.123 -0.989,-0.777 -1.864,-1.827 -3.149,-2.11 -1.808,-0.398 -3.51,0.529 -5.231,0.898 6.962,5.789 13.71,11.828 20.626,17.672 5.784,4.887 12.278,9.353 16.142,16.047 4.06,7.035 4.166,15.416 4.182,23.308 0.018,9.186 -0.016,18.373 0.061,27.559 0.116,13.988 3.058,30.014 -6.419,41.848 -8.21,10.252 -23.468,13.574 -35.434,8.487 -7.173,-3.05 -12.766,-8.653 -18.456,-13.8 -6.608,-5.974 -13.457,-11.672 -20.229,-17.457 -14.048,-12 -28.097,-24 -42.084,-36.072 -27.037,-23.341 -53.206,-47.716 -81.271,-69.843 -2.479,-1.954 -5.057,-3.845 -7.643,-5.747 15.01,-52.713 52.31,-96.029 101.057,-119.131 6.478,5.432 12.936,10.892 19.277,16.488 13.771,12.151 27.619,24.213 41.537,36.194 6.696,5.762 13.453,11.506 20.563,16.756 2.921,2.157 6.187,4.263 8.137,7.42 2.188,3.543 1.72,7.613 1.828,11.575 0.187,6.894 4.183,12.502 9.178,16.926 6.331,5.612 13.566,10.008 20.004,15.496 16.198,13.803 29.508,33.192 29.508,55.192 h -14.357 c 0.016,-0.023 0.035,-0.038 0.05,-0.066"
                           style="fill:url(#linearGradient3871);fill-rule:evenodd;stroke:none"
                           id="path3949" /></g></g></g></g></g><g
                 id="g3973"><g
                   clip-path="url(#clipPath3875)"
                   id="g3971"><g
                     id="g3969"><g
                       id="g3961" /><g
                       mask="url(#mask3887)"
                       id="g3967"><g
                         id="g3965"><path
                           d="m 304.692,255.089 c 0,0.001 -0.001,0.001 -0.001,0.001 0.023,-0.029 0.044,-0.061 0.068,-0.09 -0.022,0.031 -0.043,0.065 -0.067,0.089"
                           style="fill:url(#linearGradient3903);fill-rule:evenodd;stroke:none"
                           id="path3963" /></g></g></g></g></g></g></g></g><g
           id="g3979"
           transform="translate(250,225.3154)"><path
             d="m 0,0 c 16.344,0 29.525,13.278 29.525,29.622 l 0.096,59.242 c 0,16.393 -13.229,29.621 -29.621,29.621 -16.344,0 -29.621,-13.228 -29.621,-29.621 V 29.622 C -29.621,13.278 -16.344,0 0,0"
             style="fill:#ffffff;fill-opacity:1;fill-rule:nonzero;stroke:none"
             id="path3981" /></g><g
           id="g3983"
           transform="translate(250,204.5801)"><path
             d="m 0,0 c -27.249,0 -52.329,20.735 -52.329,50.357 h -16.787 c 0,-33.719 26.853,-61.561 59.242,-66.349 V -48.381 H 9.874 v 32.389 c 32.389,4.788 59.242,32.63 59.242,66.349 H 52.329 C 52.329,20.735 27.298,0 0,0"
             style="fill:#ffffff;fill-opacity:1;fill-rule:nonzero;stroke:none"
             id="path3985" /></g><g
           id="g3987"
           transform="translate(248.1338,409.3613)"><path
             d="m 0,0 c -1.018,0.016 -1.448,-0.186 -1.438,-1.32 0.047,-5.553 0.041,-11.109 -0.005,-16.66 -0.009,-1.043 0.285,-1.439 1.368,-1.443 3.488,-0.015 6.967,-0.265 10.403,-0.843 22.479,-3.781 40.218,-15.067 52.987,-33.935 8.405,-12.423 12.637,-26.265 12.929,-41.276 0.025,-1.276 0.384,-1.679 1.667,-1.636 2.665,0.097 5.336,0.029 8.003,0.031 2.776,0 5.558,0.051 8.33,-0.024 1.158,-0.029 1.452,0.335 1.426,1.48 -0.183,8.251 -1.29,16.362 -3.487,24.317 C 80.747,-29.99 43.47,-0.695 0,0"
             style="fill:#ffffff;fill-opacity:1;fill-rule:evenodd;stroke:none"
             id="path3989" /></g><g
           id="g3991"
           transform="translate(276.3086,369.3125)"><path
             d="m 0,0 c -8.754,4.729 -18.213,7.061 -28.184,7.205 -0.785,0.014 -1.457,0.127 -1.443,-1.105 0.062,-5.498 0.042,-10.999 0.007,-16.502 -0.007,-0.956 0.361,-1.145 1.252,-1.169 3.382,-0.083 6.724,-0.535 10.004,-1.386 19.632,-5.106 33.479,-22.288 34.26,-42.571 0.046,-1.211 0.333,-1.586 1.557,-1.542 2.615,0.091 5.23,0.028 7.844,0.028 v 0.005 c 2.724,0 5.448,0.028 8.17,-0.018 0.91,-0.013 1.221,0.265 1.221,1.203 0.002,2.35 -0.14,4.692 -0.491,7.002 C 30.872,-26.926 19.524,-10.547 0,0"
             style="fill:#ffffff;fill-opacity:1;fill-rule:evenodd;stroke:none"
             id="path3993" /></g><g
           id="g3995"
           transform="translate(259.9199,338.8281)"><path
             d="m 0,0 c -7.338,-0.025 -13.229,-5.982 -13.207,-13.365 0.021,-7.398 5.882,-13.21 13.316,-13.201 7.362,0.008 13.289,5.961 13.257,13.31 C 13.335,-5.947 7.312,0.024 0,0"
             style="fill:#ffffff;fill-opacity:1;fill-rule:evenodd;stroke:none"
             id="path3997" /></g><g
           id="g3999"
           transform="translate(249.9209,325.5449)"><path
             d="m 0,0 c -7.338,-0.025 -13.229,-5.982 -13.207,-13.365 0.021,-7.398 5.882,-13.21 13.316,-13.201 7.362,0.008 13.289,5.961 13.257,13.31 C 13.335,-5.947 7.312,0.024 0,0"
             style="fill:#ef8321;fill-opacity:1;fill-rule:evenodd;stroke:none"
             id="path4001" /></g></g></g></g></svg>