<?xml version="1.0" encoding="UTF-8" standalone="no"?>
<!-- Created with Inkscape (http://www.inkscape.org/) -->

<svg
   xmlns:dc="http://purl.org/dc/elements/1.1/"
   xmlns:cc="http://creativecommons.org/ns#"
   xmlns:rdf="http://www.w3.org/1999/02/22-rdf-syntax-ns#"
   xmlns:svg="http://www.w3.org/2000/svg"
   xmlns="http://www.w3.org/2000/svg"
   xmlns:sodipodi="http://sodipodi.sourceforge.net/DTD/sodipodi-0.dtd"
   xmlns:inkscape="http://www.inkscape.org/namespaces/inkscape"
   version="1.1"
   id="svg280"
   width="504"
   height="504"
   viewBox="0 0 504 504"
   sodipodi:docname="logo_outline.svg"
   inkscape:version="0.92.4 (5da689c313, 2019-01-14)"
   inkscape:export-filename="C:\Users\marieche\git\vscode-podcasts\resources\logo_outline.png"
   inkscape:export-xdpi="95.238098"
   inkscape:export-ydpi="95.238098">
  <metadata
     id="metadata286">
    <rdf:RDF>
      <cc:Work
         rdf:about="">
        <dc:format>image/svg+xml</dc:format>
        <dc:type
           rdf:resource="http://purl.org/dc/dcmitype/StillImage" />
        <dc:title></dc:title>
      </cc:Work>
    </rdf:RDF>
  </metadata>
  <defs
     id="defs284" />
  <sodipodi:namedview
     pagecolor="#ffffff"
     bordercolor="#666666"
     borderopacity="1"
     objecttolerance="10"
     gridtolerance="10"
     guidetolerance="10"
     inkscape:pageopacity="0"
     inkscape:pageshadow="2"
     inkscape:window-width="3840"
     inkscape:window-height="2035"
     id="namedview282"
     showgrid="false"
     inkscape:zoom="1.3244222"
     inkscape:cx="566.61822"
     inkscape:cy="199.97228"
     inkscape:window-x="2547"
     inkscape:window-y="-13"
     inkscape:window-maximized="1"
     inkscape:current-layer="svg280" />
  <path
     style="fill:#b757ff;fill-opacity:1;stroke-width:1.43261921"
     d="m 228.50964,495.46723 c -1.2269,-1.22691 -1.71914,-10.25119 -1.71914,-31.51762 v -29.79847 l -3.2234,-0.0129 c -5.78481,-0.0231 -30.68985,-9.42477 -42.07036,-15.88179 -12.92728,-7.33459 -34.95614,-27.60198 -44.42766,-40.87514 -3.4784,-4.87454 -8.9548,-14.47603 -12.16982,-21.33667 -8.85347,-18.89276 -14.29878,-50.10829 -9.56652,-54.84057 2.4441,-2.4441 34.93188,-2.38038 36.51886,0.0716 0.63746,0.98492 2.21462,8.07429 3.50481,15.75411 5.37843,32.01506 23.34997,55.8242 52.33493,69.33462 13.94153,6.4984 25.83452,9.06363 42.02107,9.06363 16.18654,0 28.07953,-2.56523 42.02106,-9.06363 30.84069,-14.37543 48.77712,-39.76066 53.28838,-75.41854 0.54827,-4.33368 1.64829,-8.68527 2.44449,-9.67019 1.9768,-2.4454 34.18897,-2.5084 36.62574,-0.0716 4.73227,4.73228 -0.71304,35.94781 -9.56653,54.84065 -7.48296,15.96819 -15.7426,27.36013 -29.78295,41.07741 -18.66637,18.23683 -38.97325,29.76453 -62.36191,35.40127 l -9.72617,2.34405 -0.0102,29.44031 c -0.008,20.97599 -0.50438,29.93459 -1.72926,31.15947 -2.39138,2.39139 -40.01414,2.39139 -42.40552,0 z M 264.03859,459.255 v -29.33566 l 3.22341,-1.97473 c 1.77286,-1.08609 7.03429,-2.78218 11.69207,-3.76905 27.74999,-5.87956 57.80244,-25.83111 74.81076,-49.66615 11.92853,-16.71634 20.44036,-38.44293 22.79757,-58.1912 l 0.98326,-8.23756 h -11.56111 -11.56112 l -0.83548,5.37233 c -2.45842,15.80816 -4.5755,23.31271 -9.35702,33.16841 -9.9179,20.44285 -26.94398,37.25772 -47.9584,47.36347 -15.92078,7.65625 -27.1207,10.08128 -46.56012,10.08128 -19.43943,0 -30.63933,-2.42503 -46.56012,-10.08128 -21.01444,-10.10575 -38.0405,-26.92062 -47.9584,-47.36347 -4.78152,-9.8557 -6.89861,-17.36025 -9.35703,-33.16841 l -0.83549,-5.37233 h -11.5611 -11.56111 l 0.98326,8.23756 c 1.56607,13.12026 4.89228,24.53366 10.89427,37.38208 16.8555,36.0824 46.50877,60.08735 87.14861,70.54861 5.82447,1.49927 11.46539,3.45255 12.53542,4.3406 1.52244,1.2635 1.9455,7.96278 1.9455,30.80788 v 29.19327 h 14.32619 14.32618 z m -30.05027,-96.1662 c -16.10406,-4.32756 -32.07872,-17.65559 -39.64685,-33.07825 l -4.08276,-8.32002 -0.40872,-71.16471 c -0.38879,-67.6933 -0.27117,-71.55607 2.41114,-79.1877 12.12587,-34.5003 52.39375,-50.59255 85.31047,-34.09262 9.67564,4.85003 22.31616,17.90442 27.39268,28.28956 l 4.20182,8.5957 v 73.06358 73.06358 l -4.42513,9.33764 c -12.82692,27.06655 -42.46235,41.09553 -70.75265,33.49324 z m 27.95851,-8.52252 c 16.47373,-4.28974 26.9185,-12.81132 34.14951,-27.86158 l 4.47405,-9.31202 v -70.19834 -70.19833 l -4.14601,-8.44386 c -5.46066,-11.12133 -13.33203,-18.76229 -25.00601,-24.27405 -8.35182,-3.94324 -11.0327,-4.49889 -21.70596,-4.49889 -10.67326,0 -13.35415,0.55565 -21.70597,4.49889 -11.67397,5.51176 -19.54536,13.15272 -25.006,24.27405 l -4.14601,8.44386 -0.41056,68.29425 c -0.38988,64.85759 -0.26855,68.69826 2.41115,76.32249 5.82606,16.57623 18.5685,28.22613 35.96382,32.88025 10.28218,2.751 14.79426,2.76416 25.12799,0.0733 z M 240.66539,223.53197 c -2.21807,-0.66577 -6.18621,-2.85293 -8.81808,-4.86036 -14.04546,-10.713 -15.81666,-29.50051 -4.01294,-42.56585 12.77974,-14.14563 28.89737,-14.70532 42.13937,-1.46335 12.57484,12.57487 12.71129,28.60846 0.34867,40.97107 -8.55093,8.55095 -18.6058,11.23562 -29.65702,7.91849 z m 14.9588,-8.59806 c 14.87969,-4.1331 19.63431,-23.35686 8.52461,-34.46656 -14.73641,-14.73641 -39.96436,-0.152 -34.54578,19.97107 1.7877,6.63906 7.413,12.6361 13.51285,14.40582 6.00796,1.74308 6.54207,1.7469 12.50832,0.0897 z m 72.38801,-18.35219 c -1.30406,-1.44095 -2.38051,-4.50317 -2.39215,-6.80495 -0.0663,-13.09672 -7.62009,-32.48638 -18.07363,-46.39266 -11.44223,-15.22157 -39.23784,-30.13966 -56.15659,-30.13966 -2.93576,0 -6.77055,-1.00357 -8.52174,-2.23015 -3.00802,-2.1069 -3.18402,-3.24281 -3.18402,-20.550935 0,-23.451255 -0.10165,-23.329096 17.90774,-21.493023 7.09147,0.722985 16.42826,2.338924 20.74844,3.590961 36.43134,10.558312 70.62227,41.859587 83.65832,76.587997 6.93651,18.47904 10.32616,44.3417 6.3347,48.33316 -1.15583,1.15584 -7.65497,1.71915 -19.83462,1.71915 -15.73058,0 -18.42763,-0.34492 -20.48645,-2.61989 z m 33.4445,-9.61778 c 0,-6.20322 -4.35141,-25.08603 -8.05384,-34.94939 -10.52726,-28.04484 -32.38712,-51.17807 -61.02316,-64.577762 -10.94799,-5.122918 -29.43864,-10.0078 -37.88229,-10.0078 h -6.21762 v 13.609882 13.60988 h 5.65652 c 3.11109,0 10.73661,1.6048 16.94561,3.56622 32.66784,10.31975 58.93519,41.42853 62.80858,74.38505 l 0.94093,8.00586 h 13.41263 13.41264 z m 28.34254,9.73058 c -1.31836,-1.51164 -2.57081,-6.94757 -3.15433,-13.69048 -4.08687,-47.22675 -32.18622,-91.088899 -72.56519,-113.271788 -18.39725,-10.106861 -45.32458,-17.996306 -61.6382,-18.059414 -12.1041,-0.04684 -12.75745,-1.274114 -12.75745,-23.964755 0,-15.043342 0.42865,-19.0497203 2.19495,-20.5156263 4.80421,-3.987129 39.52124,0.47501 61.74851,7.9364603 35.26061,11.836593 70.64607,37.884768 93.31649,68.692724 14.80656,20.121369 27.23921,48.462359 32.38957,73.833999 3.33545,16.43102 4.54599,36.71662 2.34907,39.36376 -1.45503,1.75319 -5.53516,2.18221 -20.75399,2.18221 -16.2528,0 -19.25341,-0.35604 -21.12943,-2.50709 z M 423.76067,180.9357 C 416.29814,105.71157 368.98525,46.020698 298.6248,23.06187 285.45694,18.765161 262.83011,14.393745 253.7578,14.393745 h -5.47801 v 14.326191 14.326186 l 7.52124,0.03095 c 9.49205,0.0391 28.86661,4.300752 41.90411,9.217214 21.79381,8.218481 37.41167,18.892782 55.89886,38.205107 24.62929,25.728507 38.60574,55.688637 41.6498,89.281187 l 0.98096,10.82525 h 14.24264 14.24261 z"
     id="path290"
     inkscape:connector-curvature="0" />
</svg>
