<?xml version="1.0" encoding="utf-8"?>
<!-- Svg Vector Icons : http://www.onlinewebfonts.com/icon -->
<!DOCTYPE svg PUBLIC "-//W3C//DTD SVG 1.1//EN" "http://www.w3.org/Graphics/SVG/1.1/DTD/svg11.dtd">
<svg version="1.1" xmlns="http://www.w3.org/2000/svg" xmlns:xlink="http://www.w3.org/1999/xlink" x="0px" y="0px" viewBox="-200 -200 1400 1400" enable-background="new 0 0 1000 1000" xml:space="preserve">
<metadata> Svg Vector Icons : http://www.onlinewebfonts.com/icon </metadata>
<g><g transform="translate(0.000000,511.000000) scale(0.100000,-0.100000)"><path fill="#C5C5C5" d="M4893.7,4720.5c-24.5-30.6-318.8-658-649.8-1393.6c-588.5-1307.8-604.8-1340.5-715.2-1452.8c-130.8-130.8-251.3-194.1-420.9-222.7c-67.4-12.3-745.8-89.9-1508-171.6C412.6,1348.9,204.1,1322.3,159.2,1287.6c-67.4-49-77.7-112.4-28.6-185.9C151,1069,653.7,601,1250.4,61.6c1052.3-954.3,1085-987,1162.7-1134.1c136.9-265.6,143-218.7-200.2-1867.7c-163.5-790.8-298.3-1454.9-298.3-1477.4c0-24.5,24.5-65.4,53.1-96c40.9-38.8,65.4-49,110.3-38.8c32.7,6.1,608.9,324.9,1281.2,709c672.3,384.2,1266.9,721.3,1320,749.9c132.8,65.4,369.9,83.8,527.2,38.8c67.4-20.4,615.1-320.8,1385.4-760.1c698.8-400.5,1297.6-731.5,1330.2-739.7c45-8.2,71.5,2.1,110.4,40.9c28.6,30.7,53.1,71.5,53.1,94c0,24.5-132.8,684.5-296.3,1471.2c-163.5,784.7-296.3,1473.3-296.3,1530.5c0,145.1,71.5,347.4,159.4,461.8C7695.2-905,8202-432.9,8780.3,90.2C9358.6,615.3,9849,1069,9869.4,1101.7c49.1,73.6,38.8,136.9-28.6,185.9c-45,32.7-267.7,63.3-1518.3,200.2c-807.1,89.9-1501.9,171.7-1542.8,186c-108.3,34.7-255.4,132.8-341.2,226.8c-87.9,98.1-63.4,49-754,1577.5c-298.3,664.1-561.9,1226-586.5,1252.6C5036.8,4796.1,4955,4792,4893.7,4720.5z M5396.4,3136.9c627.3-1397.7,621.2-1385.4,794.9-1557.1c165.5-161.4,367.8-277.9,549.7-314.7c59.2-12.3,531.3-67.4,1048.3-124.7C9154.2,991.3,9150.1,991.3,9144,975c-4.1-8.2-388.3-361.7-854.1-784.7c-465.9-420.9-882.8-807.1-925.7-854.1c-177.8-196.2-292.2-541.5-273.8-821.4c8.2-89.9,118.5-668.2,247.3-1285.3c130.8-619.2,232.9-1125.9,230.9-1130c-4.1-2-474.1,263.6-1048.3,590.6c-572.1,326.9-1095.3,613-1162.7,635.5c-173.7,59.3-541.5,59.3-715.2,0c-67.4-22.5-590.5-308.5-1162.7-635.5c-574.2-326.9-1044.2-592.6-1048.3-590.6c-2,4.1,104.2,537.4,239.1,1185.2c136.9,655.9,245.2,1226,245.2,1285.3c-2,257.5-122.6,588.5-282,766.3c-40.9,47-457.7,433.2-923.6,854.1c-465.9,423-850.1,778.5-854.1,788.8c-4.1,10.2,8.2,18.4,26.6,18.4c79.7,0,2276.3,247.3,2376.5,267.7c181.9,36.8,384.2,153.3,549.7,314.7c173.7,171.7,167.6,159.4,794.9,1557.1c212.5,476.1,390.3,864.4,396.4,864.4C5006.1,4001.2,5183.9,3613,5396.4,3136.9z"/></g></g>
</svg>